<svg width="165" height="48" viewBox="0 0 165 48" fill="none" xmlns="http://www.w3.org/2000/svg">
<g clip-path="url(#clip0_21_20)">
<path d="M27.305 28.9052C25.9859 30.2772 24.7847 31.7905 23.7248 33.4275C22.659 31.7905 21.4636 30.2831 20.1446 28.9111C15.3043 23.8647 8.86236 20.6849 2.02588 19.8252L3.52154 34.4521C3.91018 38.2972 6.45399 41.5889 10.0754 42.9373L23.7248 48.0014L37.3742 42.9373C41.0015 41.5948 43.5453 38.3031 43.928 34.4521L45.4237 19.8252C38.5872 20.6849 32.1453 23.8647 27.305 28.9052Z" fill="#90D7F0"/>
<path d="M46 14.2252L47.4545 0.00463867H-0.000488281L1.45396 14.2252C9.81554 14.9789 17.7532 18.6592 23.724 24.689C29.6949 18.6651 37.6325 14.9848 45.9941 14.2252H46Z" fill="#5E85C4"/>
<path d="M59.0317 3.06082C60.3036 3.06082 61.2693 3.41413 61.9347 4.12663C62.6001 4.83913 62.9358 5.85194 62.9358 7.17095V15.5796C62.9358 16.8987 62.606 17.9056 61.9347 18.6122C61.2693 19.3188 60.3036 19.6662 59.0317 19.6662C57.7598 19.6662 56.7941 19.3129 56.1287 18.6122C55.4633 17.9056 55.1277 16.8987 55.1277 15.5796V13.6953H57.7068V15.7386C57.7068 16.3275 57.8246 16.7397 58.066 16.9811C58.3074 17.2225 58.6254 17.3403 59.0317 17.3403C59.438 17.3403 59.756 17.2225 59.9974 16.9811C60.2389 16.7397 60.3566 16.3275 60.3566 15.7386V7.00608C60.3566 6.41723 60.2389 5.99915 59.9974 5.75184C59.756 5.50452 59.438 5.38087 59.0317 5.38087C58.6254 5.38087 58.3074 5.50452 58.066 5.75184C57.8246 5.99915 57.7068 6.41723 57.7068 7.00608V8.56062H55.1277V7.16506C55.1277 5.84605 55.4633 4.83324 56.1287 4.12074C56.7941 3.40824 57.7598 3.05493 59.0317 3.05493V3.06082Z" fill="#1B3464"/>
<path d="M72.5988 7.42413C72.5988 7.73621 72.5693 8.0483 72.5163 8.36628C72.4634 8.68425 72.375 8.97279 72.2631 9.23777C72.1454 9.50274 71.9982 9.73239 71.8215 9.9326C71.6449 10.1328 71.4329 10.28 71.1856 10.3742C71.4329 10.4684 71.6449 10.6157 71.8215 10.8159C71.9982 11.0161 72.1454 11.2516 72.2631 11.5225C72.3809 11.7933 72.4634 12.0819 72.5163 12.394C72.5693 12.7061 72.5988 13.0123 72.5988 13.3243V15.5796C72.5988 16.8986 72.2631 17.9056 71.586 18.6122C70.9147 19.3188 69.949 19.6662 68.6947 19.6662C67.4405 19.6662 66.4571 19.3129 65.7917 18.6122C65.1264 17.9056 64.7907 16.8986 64.7907 15.5796V13.6953H67.3699V15.7386C67.3699 16.3274 67.4876 16.7455 67.729 16.9928C67.9705 17.2402 68.2884 17.3638 68.6947 17.3638C69.1011 17.3638 69.419 17.2402 69.6605 16.9928C69.9019 16.7455 70.0196 16.3274 70.0196 15.7386V13.1595C70.0196 12.5706 69.9019 12.1525 69.6605 11.9052C69.419 11.6579 69.1011 11.5343 68.6947 11.5343H68.2296V9.21421H68.6947C69.0952 9.21421 69.419 9.09055 69.6605 8.84324C69.9019 8.59592 70.0196 8.17785 70.0196 7.589V7.00605C70.0196 6.4172 69.9019 6.00501 69.6605 5.76359C69.419 5.52216 69.1011 5.40439 68.6947 5.40439C68.2884 5.40439 67.9705 5.52216 67.729 5.76359C67.4876 6.00501 67.3699 6.4172 67.3699 7.00605V7.7951H64.7907V7.17092C64.7907 5.85191 65.1205 4.8391 65.7917 4.1266C66.4571 3.4141 67.4228 3.06079 68.6947 3.06079C69.9667 3.06079 70.9147 3.4141 71.586 4.1266C72.2573 4.8391 72.5988 5.85191 72.5988 7.17092V7.42413Z" fill="#1B3464"/>
<path d="M74.4596 19.5071V7.14724C74.4596 5.82823 74.7835 4.81542 75.4253 4.10292C76.0672 3.39042 77.0152 3.03711 78.2694 3.03711C78.4991 3.03711 78.7464 3.05477 78.9996 3.08422C79.2528 3.11366 79.5237 3.1431 79.8004 3.16665C80.0772 3.19021 80.3657 3.20199 80.6601 3.20199C80.9369 3.20199 81.2195 3.17254 81.4963 3.10777V5.36304C81.2961 5.42782 81.0488 5.45726 80.7544 5.45726C80.6602 5.47492 80.5601 5.48081 80.4541 5.48081C80.2656 5.48081 80.0772 5.47492 79.8711 5.45726C79.559 5.43959 79.2705 5.42193 78.9878 5.39837C78.7111 5.37482 78.4932 5.36304 78.3401 5.36304C77.9515 5.36304 77.6335 5.4867 77.3862 5.73401C77.1389 5.98133 77.0152 6.39941 77.0152 6.98825V9.70282C77.186 9.54972 77.398 9.42018 77.6512 9.32008C77.9044 9.21997 78.2106 9.16698 78.5697 9.16698C79.0349 9.16698 79.4884 9.24353 79.93 9.39662C80.3716 9.54972 80.7603 9.79704 81.1018 10.1268C81.4433 10.4624 81.7201 10.8864 81.9262 11.4046C82.1382 11.9228 82.2383 12.5469 82.2383 13.2771V19.5012H79.6827V13.1122C79.6827 12.5234 79.5649 12.1112 79.3235 11.8698C79.0821 11.6283 78.7523 11.5106 78.3342 11.5106C77.9161 11.5106 77.6099 11.6283 77.3685 11.8698C77.1271 12.1112 77.0093 12.5234 77.0093 13.1122V19.5012H74.4537L74.4596 19.5071Z" fill="#1B3464"/>
<path d="M92.8777 3.03711C94.1319 3.03711 95.0741 3.3963 95.6983 4.10292C96.3224 4.81542 96.6404 5.82823 96.6404 7.14724V19.5071H94.0848V6.98236C94.0848 6.39352 93.9729 5.97544 93.7492 5.72813C93.5254 5.48081 93.2369 5.35716 92.8777 5.35716C92.5185 5.35716 92.23 5.48081 92.0062 5.72813C91.7824 5.97544 91.6706 6.39352 91.6706 6.98236V11.3516H89.0914V6.98236C89.0914 6.39352 88.9795 5.97544 88.7558 5.72813C88.532 5.48081 88.2435 5.35716 87.8843 5.35716C87.5251 5.35716 87.2366 5.48081 87.0128 5.72813C86.789 5.97544 86.6772 6.39352 86.6772 6.98236V19.5012H84.1216V7.14724C84.1216 5.82823 84.4337 4.81542 85.0637 4.10292C85.6938 3.39042 86.6301 3.03711 87.8843 3.03711C88.3789 3.03711 88.8618 3.1431 89.327 3.3492C89.7921 3.55529 90.1396 3.87916 90.3692 4.3149H90.3928C90.6224 3.87916 90.9698 3.56118 91.4291 3.3492C91.8884 3.13721 92.3713 3.03711 92.8836 3.03711H92.8777Z" fill="#1B3464"/>
<path d="M106.304 7.42413C106.304 7.73621 106.274 8.0483 106.221 8.36628C106.168 8.68425 106.08 8.97279 105.968 9.23777C105.85 9.50274 105.703 9.73239 105.526 9.9326C105.35 10.1328 105.138 10.28 104.891 10.3742C105.138 10.4684 105.35 10.6157 105.526 10.8159C105.703 11.0161 105.85 11.2516 105.968 11.5225C106.086 11.7933 106.168 12.0819 106.221 12.394C106.274 12.7061 106.304 13.0123 106.304 13.3243V15.5796C106.304 16.8986 105.968 17.9056 105.291 18.6122C104.62 19.3188 103.654 19.6662 102.4 19.6662C101.145 19.6662 100.162 19.3129 99.4967 18.6122C98.8313 17.9056 98.4957 16.8986 98.4957 15.5796V13.6953H101.075V15.7386C101.075 16.3274 101.193 16.7455 101.434 16.9928C101.675 17.2402 101.993 17.3638 102.4 17.3638C102.806 17.3638 103.124 17.2402 103.365 16.9928C103.607 16.7455 103.725 16.3274 103.725 15.7386V13.1595C103.725 12.5706 103.607 12.1525 103.365 11.9052C103.124 11.6579 102.806 11.5343 102.4 11.5343H101.705V9.21421H102.4C102.8 9.21421 103.124 9.09055 103.365 8.84324C103.607 8.59592 103.725 8.17785 103.725 7.589V7.00605C103.725 6.4172 103.607 6.00501 103.365 5.76359C103.124 5.52216 102.806 5.40439 102.4 5.40439V3.06079C103.654 3.06079 104.62 3.4141 105.291 4.1266C105.962 4.8391 106.304 5.85191 106.304 7.17092V7.42413Z" fill="#1B3464"/>
<path d="M108.159 19.5071V7.14724C108.159 5.82823 108.483 4.81542 109.125 4.10292C109.766 3.39042 110.714 3.03711 111.969 3.03711C112.198 3.03711 112.446 3.05477 112.699 3.08422C112.952 3.11366 113.223 3.1431 113.5 3.16665C113.776 3.19021 114.065 3.20199 114.359 3.20199C114.636 3.20199 114.919 3.17254 115.196 3.10777V5.36304C114.995 5.42782 114.748 5.45726 114.454 5.45726C114.359 5.47492 114.259 5.48081 114.153 5.48081C113.965 5.48081 113.776 5.47492 113.57 5.45726C113.258 5.43959 112.97 5.42193 112.687 5.39837C112.41 5.37482 112.192 5.36304 112.039 5.36304C111.651 5.36304 111.333 5.4867 111.085 5.73401C110.838 5.98133 110.714 6.39941 110.714 6.98825V9.70282C110.885 9.54972 111.097 9.42018 111.35 9.32008C111.604 9.21997 111.91 9.16698 112.269 9.16698C112.734 9.16698 113.188 9.24353 113.629 9.39662C114.071 9.54972 114.459 9.79704 114.801 10.1268C115.143 10.4624 115.419 10.8864 115.625 11.4046C115.837 11.9228 115.937 12.5469 115.937 13.2771V19.5012H113.382V13.1122C113.382 12.5234 113.264 12.1112 113.023 11.8698C112.781 11.6283 112.452 11.5106 112.033 11.5106C111.615 11.5106 111.309 11.6283 111.068 11.8698C110.826 12.1112 110.709 12.5234 110.709 13.1122V19.5012H108.153L108.159 19.5071Z" fill="#1B3464"/>
<path d="M121.701 3.06082C122.973 3.06082 123.939 3.41413 124.604 4.12663C125.27 4.83913 125.605 5.85194 125.605 7.17095V15.5796C125.605 16.8987 125.27 17.9056 124.604 18.6122C123.939 19.3188 122.973 19.6662 121.701 19.6662C120.429 19.6662 119.464 19.3129 118.798 18.6122C118.133 17.9056 117.797 16.8987 117.797 15.5796V13.6953H120.376V15.7386C120.376 16.3275 120.494 16.7397 120.736 16.9811C120.977 17.2225 121.295 17.3403 121.701 17.3403C122.108 17.3403 122.426 17.2225 122.667 16.9811C122.909 16.7397 123.026 16.3275 123.026 15.7386V7.00608C123.026 6.41723 122.909 5.99915 122.667 5.75184C122.426 5.50452 122.108 5.38087 121.701 5.38087C121.295 5.38087 120.977 5.50452 120.736 5.75184C120.494 5.99915 120.376 6.41723 120.376 7.00608V8.56062H117.797V7.16506C117.797 5.84605 118.127 4.83324 118.798 4.12074C119.464 3.40824 120.429 3.05493 121.701 3.05493V3.06082Z" fill="#1B3464"/>
<path d="M131.365 13.654C131.071 13.654 130.8 13.601 130.553 13.5009C130.305 13.4008 130.081 13.2653 129.881 13.0946V13.1417C129.881 13.389 129.928 13.6422 130.023 13.8954C130.117 14.1486 130.388 14.4018 130.835 14.6491L130.859 14.6727C131.383 14.9671 131.86 15.3086 132.29 15.709C132.714 16.1036 133.079 16.5157 133.379 16.9397C133.679 17.3637 133.921 17.7994 134.097 18.2411C134.274 18.6827 134.38 19.1067 134.409 19.5071H131.83C131.66 18.8888 131.389 18.3647 131.018 17.9408C130.647 17.5168 130.235 17.1811 129.775 16.9279C129.316 16.6747 128.845 16.5099 128.344 16.4156C128.021 16.3509 127.703 16.3214 127.39 16.3214C127.237 16.3214 127.09 16.3273 126.949 16.345V13.7894C127.055 13.7717 127.167 13.7658 127.273 13.7658H127.597C127.502 13.5185 127.455 13.23 127.455 12.9061V7.14724C127.455 5.82823 127.791 4.81542 128.468 4.10292C129.139 3.39042 130.105 3.03711 131.359 3.03711C132.614 3.03711 133.573 3.3963 134.239 4.10292C134.904 4.81542 135.24 5.82823 135.24 7.14724V9.53795C135.24 10.857 134.904 11.8698 134.239 12.5823C133.573 13.2948 132.614 13.6481 131.359 13.6481L131.365 13.654ZM130.04 9.70282C130.04 10.2917 130.158 10.7039 130.399 10.9453C130.641 11.1867 130.959 11.3045 131.365 11.3045C131.771 11.3045 132.089 11.1867 132.331 10.9453C132.572 10.7039 132.69 10.2917 132.69 9.70282V6.98825C132.69 6.39941 132.572 5.98133 132.331 5.73401C132.089 5.4867 131.771 5.36304 131.365 5.36304C130.959 5.36304 130.641 5.4867 130.399 5.73401C130.158 5.98133 130.04 6.39941 130.04 6.98825V9.70282Z" fill="#1B3464"/>
<path d="M137.106 19.5071V7.14724C137.106 5.82823 137.436 4.81542 138.107 4.10292C138.772 3.39042 139.732 3.03711 140.986 3.03711C142.241 3.03711 143.224 3.3963 143.889 4.10292C144.555 4.81542 144.89 5.82823 144.89 7.14724V19.5071H142.335V6.98236C142.335 6.39352 142.217 5.97544 141.976 5.72813C141.734 5.48081 141.405 5.35716 140.986 5.35716C140.568 5.35716 140.262 5.48081 140.021 5.72813C139.779 5.97544 139.662 6.39352 139.662 6.98236V19.5012H137.106V19.5071Z" fill="#1B3464"/>
<path d="M154.595 7.07671C154.813 7.24747 154.996 7.50068 155.143 7.83043C155.29 8.16607 155.361 8.53704 155.361 8.95512V15.5737C155.361 16.2215 155.255 16.8044 155.049 17.3167C154.837 17.829 154.542 18.2589 154.154 18.6063C153.765 18.9537 153.312 19.2187 152.782 19.3953C152.258 19.572 151.675 19.6603 151.039 19.6603C150.403 19.6603 149.82 19.572 149.296 19.3953C148.772 19.2187 148.312 18.9537 147.924 18.6063C147.535 18.2589 147.241 17.829 147.029 17.3167C146.822 16.8044 146.716 16.2273 146.716 15.5737V3.21978H149.296V15.7386C149.296 16.033 149.349 16.2803 149.461 16.4805C149.566 16.6808 149.702 16.8456 149.867 16.9811C150.032 17.1106 150.214 17.2048 150.426 17.2578C150.638 17.3108 150.838 17.3403 151.044 17.3403C151.251 17.3403 151.451 17.3108 151.663 17.2578C151.869 17.2048 152.057 17.1106 152.222 16.9811C152.387 16.8515 152.522 16.6808 152.628 16.4805C152.734 16.2803 152.793 16.033 152.793 15.7386V8.63126C152.793 8.38394 152.676 8.26028 152.446 8.26028C152.228 8.26028 152.122 8.38394 152.122 8.63126V10.2329H149.985V8.95512C149.985 8.53704 150.038 8.16018 150.149 7.83043C150.255 7.49479 150.426 7.22981 150.662 7.0296C150.444 6.84117 150.297 6.6233 150.22 6.3701C150.144 6.11689 150.102 5.8578 150.102 5.59282C150.102 5.25129 150.167 4.92743 150.303 4.61534C150.432 4.30325 150.615 4.03238 150.85 3.80273C151.08 3.57309 151.351 3.39054 151.651 3.25511C151.951 3.12556 152.281 3.06079 152.64 3.06079C152.999 3.06079 153.329 3.12556 153.641 3.25511C153.953 3.38466 154.224 3.5672 154.454 3.80273C154.689 4.03238 154.866 4.30325 155.002 4.61534C155.131 4.92743 155.196 5.25129 155.196 5.59282C155.196 6.27588 155.002 6.77051 154.613 7.07671H154.595ZM152.617 6.217C152.787 6.217 152.935 6.15811 153.058 6.02857C153.182 5.90491 153.247 5.7577 153.247 5.58693C153.247 5.41617 153.182 5.27484 153.058 5.15708C152.935 5.03931 152.787 4.98042 152.617 4.98042C152.446 4.98042 152.305 5.03931 152.187 5.15708C152.069 5.27484 152.01 5.41617 152.01 5.58693C152.01 5.7577 152.069 5.90491 152.187 6.02857C152.305 6.15222 152.446 6.217 152.617 6.217Z" fill="#1B3464"/>
<path d="M157.221 19.5071V7.14724C157.221 5.82823 157.551 4.81542 158.222 4.10292C158.894 3.39042 159.848 3.03711 161.102 3.03711C162.356 3.03711 163.339 3.3963 164.005 4.10292C164.67 4.81542 165.006 5.82823 165.006 7.14724V19.5071H162.45V6.98236C162.45 6.39352 162.333 5.97544 162.091 5.72813C161.85 5.48081 161.52 5.35716 161.102 5.35716C160.684 5.35716 160.378 5.48081 160.136 5.72813C159.895 5.97544 159.777 6.39352 159.777 6.98236V19.5012H157.221V19.5071Z" fill="#1B3464"/>
<path d="M57.9187 30.0534H61.7403V32.5854H57.9187V37.1254H62.7295V39.6574H55.1334V23.2405H62.7295V25.7725H57.9187V30.0593V30.0534Z" fill="#1B3464"/>
<path d="M69.2067 23.2405V35.6062C69.2067 36.248 69.3363 36.6956 69.6013 36.9488C69.8604 37.202 70.2137 37.3256 70.6494 37.3256C71.0852 37.3256 71.4385 37.202 71.6976 36.9488C71.9566 36.6956 72.0921 36.248 72.0921 35.6062V23.2405H74.7242V35.4296C74.7242 36.8663 74.3709 37.9675 73.6761 38.733C72.9753 39.4985 71.9449 39.8871 70.5729 39.8871C69.2009 39.8871 68.1704 39.5044 67.4697 38.733C66.7689 37.9675 66.4215 36.8663 66.4215 35.4296V23.2405H69.2067Z" fill="#1B3464"/>
<path d="M84.5458 39.6574C84.5105 39.5396 84.481 39.4278 84.4457 39.3277C84.4104 39.2276 84.3809 39.098 84.3574 38.9508C84.3338 38.7977 84.3162 38.6034 84.3044 38.3679C84.2926 38.1323 84.2926 37.8379 84.2926 37.4846V35.353C84.2926 34.5286 84.1513 33.9456 83.8627 33.6041C83.5742 33.2685 83.109 33.0977 82.4731 33.0977H81.5133V39.6633H78.728V23.2463H82.9324C84.3809 23.2463 85.435 23.582 86.0827 24.2591C86.7304 24.9363 87.0602 25.955 87.0602 27.3211V28.0631C87.0602 29.8885 86.4537 31.0839 85.2348 31.655C85.9414 31.9436 86.4301 32.4088 86.6892 33.0624C86.9483 33.7101 87.0837 34.4991 87.0837 35.4295V37.514C87.0837 37.9557 87.1014 38.3384 87.1367 38.6682C87.1721 38.9979 87.2545 39.3336 87.3899 39.6692H84.5576L84.5458 39.6574ZM81.5074 25.7666V30.5598H82.5967C83.1208 30.5598 83.5271 30.4243 83.8215 30.1535C84.116 29.8826 84.2632 29.3939 84.2632 28.6873V27.592C84.2632 26.9502 84.1513 26.485 83.9216 26.2023C83.692 25.9138 83.3328 25.7725 82.8441 25.7725H81.5015L81.5074 25.7666Z" fill="#1B3464"/>
<path d="M90.6753 27.492C90.6753 26.0552 91.0404 24.9541 91.7646 24.1886C92.4889 23.4231 93.5371 23.0344 94.9032 23.0344C96.2693 23.0344 97.3175 23.4172 98.0417 24.1886C98.766 24.9541 99.1311 26.0552 99.1311 27.492V35.406C99.1311 36.8428 98.766 37.944 98.0417 38.7095C97.3175 39.475 96.2693 39.8636 94.9032 39.8636C93.5371 39.8636 92.4889 39.4808 91.7646 38.7095C91.0404 37.944 90.6753 36.8428 90.6753 35.406V27.492ZM93.4605 35.5827C93.4605 36.2245 93.5901 36.6779 93.855 36.937C94.1141 37.1961 94.4674 37.3316 94.9032 37.3316C95.3389 37.3316 95.6922 37.202 95.9513 36.937C96.2104 36.6779 96.3459 36.2245 96.3459 35.5827V27.3153C96.3459 26.6735 96.2163 26.2201 95.9513 25.961C95.6922 25.7019 95.3389 25.5665 94.9032 25.5665C94.4674 25.5665 94.1141 25.696 93.855 25.961C93.596 26.2201 93.4605 26.6735 93.4605 27.3153V35.5827Z" fill="#1B3464"/>
<path d="M111.138 33.0507V35.406C111.138 36.8428 110.785 37.944 110.09 38.7095C109.389 39.475 108.359 39.8636 106.987 39.8636C105.615 39.8636 104.584 39.4808 103.884 38.7095C103.183 37.944 102.836 36.8428 102.836 35.406V27.492C102.836 26.0552 103.189 24.9541 103.884 24.1886C104.584 23.4231 105.621 23.0344 106.987 23.0344C108.353 23.0344 109.389 23.4172 110.09 24.1886C110.791 24.9541 111.138 26.0552 111.138 27.492V29.2114H108.506V27.3153C108.506 26.6735 108.377 26.2201 108.112 25.961C107.852 25.7019 107.499 25.5665 107.063 25.5665C106.628 25.5665 106.274 25.696 106.015 25.961C105.756 26.2201 105.621 26.6735 105.621 27.3153V35.5827C105.621 36.2245 105.75 36.6721 106.015 36.9253C106.274 37.1785 106.628 37.3021 107.063 37.3021C107.499 37.3021 107.852 37.1785 108.112 36.9253C108.371 36.6721 108.506 36.2245 108.506 35.5827V33.0507H111.138Z" fill="#1B3464"/>
<path d="M120.931 39.6574C120.895 39.5396 120.866 39.4278 120.83 39.3277C120.795 39.2276 120.766 39.098 120.742 38.9508C120.719 38.7977 120.701 38.6034 120.689 38.3679C120.677 38.1323 120.677 37.8379 120.677 37.4846V35.353C120.677 34.5286 120.536 33.9456 120.248 33.6041C119.959 33.2685 119.494 33.0977 118.858 33.0977H117.898V39.6633H115.113V23.2463H119.317C120.766 23.2463 121.82 23.582 122.467 24.2591C123.115 24.9363 123.445 25.955 123.445 27.3211V28.0631C123.445 29.8885 122.838 31.0839 121.62 31.655C122.326 31.9436 122.815 32.4088 123.074 33.0624C123.333 33.7101 123.468 34.4991 123.468 35.4295V37.514C123.468 37.9557 123.486 38.3384 123.521 38.6682C123.557 38.9979 123.639 39.3336 123.775 39.6692H120.942L120.931 39.6574ZM117.892 25.7666V30.5598H118.981C119.506 30.5598 119.912 30.4243 120.206 30.1535C120.501 29.8826 120.648 29.3939 120.648 28.6873V27.592C120.648 26.9502 120.536 26.485 120.306 26.2023C120.077 25.9138 119.718 25.7725 119.229 25.7725H117.886L117.892 25.7666Z" fill="#1B3464"/>
<path d="M130.246 30.0534H134.067V32.5854H130.246V37.1254H135.057V39.6574H127.46V23.2405H135.057V25.7725H130.246V30.0593V30.0534Z" fill="#1B3464"/>
<path d="M138.749 23.2405H143.153C144.555 23.2405 145.597 23.6114 146.28 24.3534C146.963 25.0953 147.304 26.1847 147.304 27.6215V35.2823C147.304 36.7191 146.963 37.8085 146.28 38.5504C145.597 39.2924 144.555 39.6633 143.153 39.6633H138.749V23.2464V23.2405ZM141.534 25.7666V37.1195H143.106C143.548 37.1195 143.889 36.9959 144.142 36.7427C144.396 36.4895 144.519 36.0419 144.519 35.4001V27.486C144.519 26.8442 144.396 26.3967 144.142 26.1435C143.889 25.8903 143.542 25.7666 143.106 25.7666H141.534Z" fill="#1B3464"/>
<path d="M150.944 23.2405H153.729V39.6574H150.944V23.2405Z" fill="#1B3464"/>
<path d="M156.39 23.2405H164.999V25.7725H162.09V39.6574H159.305V25.7725H156.396V23.2405H156.39Z" fill="#1B3464"/>
</g>
<defs>
<clipPath id="clip0_21_20">
<rect width="165" height="47.9908" fill="white" transform="translate(0 0.00463867)"/>
</clipPath>
</defs>
</svg>
