<svg width="28" height="29" viewBox="0 0 28 29" fill="none" xmlns="http://www.w3.org/2000/svg">
<path d="M26.2512 14.7721C26.2512 13.7649 26.1678 13.0299 25.9873 12.2677H14.2512V16.8138H21.14C21.0012 17.9435 20.2512 19.6449 18.5845 20.7882L18.5612 20.9404L22.2719 23.7575L22.529 23.7827C24.89 21.6457 26.2512 18.5015 26.2512 14.7721" fill="#4285F4"/>
<path d="M14.2505 26.7499C17.6254 26.7499 20.4587 25.661 22.5282 23.7827L18.5837 20.7881C17.5282 21.5095 16.1115 22.0131 14.2505 22.0131C10.9449 22.0131 8.13941 19.8762 7.13932 16.9226L6.99273 16.9348L3.13426 19.8612L3.0838 19.9987C5.13933 24.0004 9.36154 26.7499 14.2505 26.7499Z" fill="#34A853"/>
<path d="M7.14005 16.9227C6.87617 16.1605 6.72345 15.3438 6.72345 14.4999C6.72345 13.656 6.87617 12.8394 7.12617 12.0771L7.11918 11.9148L3.21234 8.94141L3.08452 9.00099C2.23734 10.6616 1.75122 12.5263 1.75122 14.4999C1.75122 16.4735 2.23734 18.3382 3.08452 19.9988L7.14005 16.9227" fill="#FBBC05"/>
<path d="M14.2505 6.98663C16.5977 6.98663 18.181 7.98024 19.0838 8.81057L22.6116 5.435C20.445 3.46139 17.6255 2.25 14.2505 2.25C9.36158 2.25 5.13934 4.99942 3.0838 9.00106L7.12546 12.0772C8.13944 9.1236 10.945 6.98663 14.2505 6.98663" fill="#EB4335"/>
</svg>
